<?xml version="1.0" encoding="UTF-8"?>
<!DOCTYPE svg PUBLIC "-//W3C//DTD SVG 1.1//EN" "http://www.w3.org/Graphics/SVG/1.1/DTD/svg11.dtd">
<svg xmlns="http://www.w3.org/2000/svg" version="1.1" width="200px" height="300px" style="shape-rendering:geometricPrecision; text-rendering:geometricPrecision; image-rendering:optimizeQuality; fill-rule:evenodd; clip-rule:evenodd" xmlns:xlink="http://www.w3.org/1999/xlink">
<g><path style="opacity:1" fill="#f7d8ab" d="M -0.5,-0.5 C 66.1667,-0.5 132.833,-0.5 199.5,-0.5C 199.5,99.5 199.5,199.5 199.5,299.5C 132.833,299.5 66.1667,299.5 -0.5,299.5C -0.5,199.5 -0.5,99.5 -0.5,-0.5 Z"/></g>
<g><path style="opacity:1" fill="#18100b" d="M 99.5,63.5 C 101.167,63.5 102.833,63.5 104.5,63.5C 108.298,64.4834 112.298,64.8168 116.5,64.5C 128.738,64.9763 140.405,67.8096 151.5,73C 153.894,74.9522 155.394,77.4522 156,80.5C 156.923,84.7901 157.423,89.1234 157.5,93.5C 157.187,97.0419 157.521,100.375 158.5,103.5C 158.5,104.833 158.5,106.167 158.5,107.5C 158.5,110.833 158.5,114.167 158.5,117.5C 157.833,114.833 157.167,112.167 156.5,109.5C 156.666,102.492 156.5,95.4921 156,88.5C 155.809,86.2922 155.309,84.2922 154.5,82.5C 153.764,78.2088 151.431,75.0421 147.5,73C 140.086,69.9519 132.42,68.1186 124.5,67.5C 122.708,66.6909 120.708,66.1909 118.5,66C 107.839,65.5002 97.1719,65.3335 86.5,65.5C 90.8333,64.8333 95.1667,64.1667 99.5,63.5 Z"/></g>
<g><path style="opacity:1" fill="#a86b2e" d="M 86.5,66.5 C 86.5,66.1667 86.5,65.8333 86.5,65.5C 97.1719,65.3335 107.839,65.5002 118.5,66C 120.708,66.1909 122.708,66.6909 124.5,67.5C 123.127,67.3433 121.793,67.51 120.5,68C 123.901,71.6388 126.068,75.8055 127,80.5C 124.611,75.4459 121.445,70.9459 117.5,67C 116.5,66.3333 115.5,66.3333 114.5,67C 117.528,69.2603 119.362,72.0936 120,75.5C 117.618,72.5728 115.118,69.7395 112.5,67C 103.84,66.5002 95.1731,66.3336 86.5,66.5 Z"/></g>
<g><path style="opacity:1" fill="#ce873c" d="M 86.5,66.5 C 95.1731,66.3336 103.84,66.5002 112.5,67C 115.118,69.7395 117.618,72.5728 120,75.5C 119.362,72.0936 117.528,69.2603 114.5,67C 115.5,66.3333 116.5,66.3333 117.5,67C 121.445,70.9459 124.611,75.4459 127,80.5C 126.068,75.8055 123.901,71.6388 120.5,68C 121.793,67.51 123.127,67.3433 124.5,67.5C 132.42,68.1186 140.086,69.9519 147.5,73C 151.431,75.0421 153.764,78.2088 154.5,82.5C 155.352,90.8207 155.519,99.1541 155,107.5C 154.28,105.944 153.113,104.944 151.5,104.5C 151.725,99.752 151.225,95.0853 150,90.5C 148.457,88.6217 146.624,87.1217 144.5,86C 138.966,84.1328 133.299,82.7994 127.5,82C 115.833,81.3333 104.167,81.3333 92.5,82C 84.5054,82.3193 78.0054,85.4859 73,91.5C 72.1772,99.6775 72.3439,107.677 73.5,115.5C 73.5,119.167 73.5,122.833 73.5,126.5C 73.6068,128.379 73.1068,128.712 72,127.5C 70.768,115.866 70.268,104.2 70.5,92.5C 69.325,92.719 68.325,92.3857 67.5,91.5C 68.7287,90.7189 70.062,90.2189 71.5,90C 69.5273,89.5045 67.5273,89.3379 65.5,89.5C 65.6602,91.1992 65.4935,92.8659 65,94.5C 64.5017,91.1832 64.335,87.8499 64.5,84.5C 64.31,80.9682 64.9767,77.6348 66.5,74.5C 71.7279,68.529 78.3946,65.8623 86.5,66.5 Z"/></g>
<g><path style="opacity:1" fill="#6a3a16" d="M 151.5,104.5 C 151.5,109.833 151.5,115.167 151.5,120.5C 151.573,122.027 150.906,123.027 149.5,123.5C 149.5,116.167 149.5,108.833 149.5,101.5C 149.464,97.4307 148.131,93.9307 145.5,91C 142.007,89.2094 138.341,87.876 134.5,87C 119.541,85.437 104.541,85.1037 89.5,86C 85.3614,86.9123 81.3614,88.2456 77.5,90C 76.2125,91.4095 75.0458,92.9095 74,94.5C 73.5004,101.492 73.3337,108.492 73.5,115.5C 72.3439,107.677 72.1772,99.6775 73,91.5C 78.0054,85.4859 84.5054,82.3193 92.5,82C 104.167,81.3333 115.833,81.3333 127.5,82C 133.299,82.7994 138.966,84.1328 144.5,86C 146.624,87.1217 148.457,88.6217 150,90.5C 151.225,95.0853 151.725,99.752 151.5,104.5 Z"/></g>
<g><path style="opacity:1" fill="#2c1b0c" d="M 149.5,101.5 C 149.167,101.5 148.833,101.5 148.5,101.5C 147.195,93.7003 142.528,89.5336 134.5,89C 118.159,85.777 101.826,85.777 85.5,89C 76.172,92.0526 72.5054,98.5526 74.5,108.5C 74.5016,112.018 74.8349,115.351 75.5,118.5C 75.2738,134.596 83.2738,141.596 99.5,139.5C 98.0813,140.451 96.4147,140.784 94.5,140.5C 83.4247,141.489 76.4247,136.823 73.5,126.5C 73.5,122.833 73.5,119.167 73.5,115.5C 73.3337,108.492 73.5004,101.492 74,94.5C 75.0458,92.9095 76.2125,91.4095 77.5,90C 81.3614,88.2456 85.3614,86.9123 89.5,86C 104.541,85.1037 119.541,85.437 134.5,87C 138.341,87.876 142.007,89.2094 145.5,91C 148.131,93.9307 149.464,97.4307 149.5,101.5 Z"/></g>
<g><path style="opacity:1" fill="#8f5422" d="M 148.5,101.5 C 148.666,109.84 148.5,118.173 148,126.5C 147.243,128.315 146.41,129.981 145.5,131.5C 146.941,120.481 146.775,109.481 145,98.5C 144.535,97.0692 143.701,95.9025 142.5,95C 128.291,89.9322 113.625,88.0988 98.5,89.5C 98.6641,92.1873 98.4974,94.854 98,97.5C 97.338,95.1873 96.838,92.854 96.5,90.5C 91.4526,91.0069 86.4526,91.8403 81.5,93C 79.714,93.7845 78.214,94.9512 77,96.5C 75.6095,103.746 75.1095,111.079 75.5,118.5C 74.8349,115.351 74.5016,112.018 74.5,108.5C 72.5054,98.5526 76.172,92.0526 85.5,89C 101.826,85.777 118.159,85.777 134.5,89C 142.528,89.5336 147.195,93.7003 148.5,101.5 Z"/></g>
<g><path style="opacity:1" fill="#4d2b12" d="M 66.5,74.5 C 64.9767,77.6348 64.31,80.9682 64.5,84.5C 63.5098,90.6446 63.1765,96.9779 63.5,103.5C 62.6724,97.6807 62.1724,91.6807 62,85.5C 57.7304,89.2734 56.5637,93.6068 58.5,98.5C 59.1924,97.9747 59.6924,97.3081 60,96.5C 60.1667,97 60.3333,97.5 60.5,98C 58.8179,99.8951 58.3179,102.062 59,104.5C 60.2465,102.119 60.5798,102.453 60,105.5C 58.2213,108.276 57.2213,107.943 57,104.5C 56.2007,96.0201 56.8674,87.6868 59,79.5C 59.8893,78.1118 60.3893,78.2785 60.5,80C 59.2088,82.0503 58.7088,84.217 59,86.5C 59.6891,85.6433 60.5224,84.9767 61.5,84.5C 62.4245,80.6817 64.0912,77.3484 66.5,74.5 Z"/></g>
<g><path style="opacity:1" fill="#b17031" d="M 154.5,82.5 C 155.309,84.2922 155.809,86.2922 156,88.5C 156.5,95.4921 156.666,102.492 156.5,109.5C 156.826,118.017 156.493,126.35 155.5,134.5C 155.665,131.482 155.498,128.482 155,125.5C 151.654,123.578 151.654,122.911 155,123.5C 155.946,118.914 154.779,117.914 151.5,120.5C 151.5,115.167 151.5,109.833 151.5,104.5C 153.113,104.944 154.28,105.944 155,107.5C 155.519,99.1541 155.352,90.8207 154.5,82.5 Z"/></g>
<g><path style="opacity:1" fill="#b36e2e" d="M 164.5,116.5 C 162.833,116.5 161.167,116.5 159.5,116.5C 159.81,113.287 159.477,110.287 158.5,107.5C 158.5,106.167 158.5,104.833 158.5,103.5C 158.281,102.325 158.614,101.325 159.5,100.5C 161.527,101.693 163.027,103.36 164,105.5C 164.499,109.152 164.665,112.818 164.5,116.5 Z"/></g>
<g><path style="opacity:1" fill="#cc8b43" d="M 145.5,131.5 C 143.5,134.994 140.5,137.16 136.5,138C 132.56,139.015 128.56,139.515 124.5,139.5C 116.167,139.5 107.833,139.5 99.5,139.5C 83.2738,141.596 75.2738,134.596 75.5,118.5C 75.1095,111.079 75.6095,103.746 77,96.5C 78.214,94.9512 79.714,93.7845 81.5,93C 86.4526,91.8403 91.4526,91.0069 96.5,90.5C 96.838,92.854 97.338,95.1873 98,97.5C 98.4974,94.854 98.6641,92.1873 98.5,89.5C 113.625,88.0988 128.291,89.9322 142.5,95C 143.701,95.9025 144.535,97.0692 145,98.5C 146.775,109.481 146.941,120.481 145.5,131.5 Z"/></g>
<g><path style="opacity:1" fill="#33200e" d="M 129.5,98.5 C 134.382,98.175 137.882,100.175 140,104.5C 140.791,108.926 140.457,113.259 139,117.5C 133.408,123.315 128.742,122.648 125,115.5C 124.333,111.5 124.333,107.5 125,103.5C 126.025,101.313 127.525,99.6464 129.5,98.5 Z"/></g>
<g><path style="opacity:1" fill="#e5bf75" d="M 133.5,103.5 C 136.084,104.048 137.084,105.715 136.5,108.5C 135.167,108.5 133.833,108.5 132.5,108.5C 132.366,106.708 132.699,105.042 133.5,103.5 Z"/></g>
<g><path style="opacity:1" fill="#33200e" d="M 88.5,98.5 C 93.3836,97.8606 97.217,99.5273 100,103.5C 101.223,109.379 100.389,114.879 97.5,120C 91.3991,123.074 86.8991,121.574 84,115.5C 82.2678,108.84 83.7678,103.174 88.5,98.5 Z"/></g>
<g><path style="opacity:1" fill="#e8c277" d="M 92.5,103.5 C 95.9103,103.384 97.2436,105.05 96.5,108.5C 95.1667,108.5 93.8333,108.5 92.5,108.5C 92.5,106.833 92.5,105.167 92.5,103.5 Z"/></g>
<g><path style="opacity:1" fill="#150e07" d="M 148.5,101.5 C 148.833,101.5 149.167,101.5 149.5,101.5C 149.5,108.833 149.5,116.167 149.5,123.5C 149.873,131.602 146.206,136.769 138.5,139C 134.56,140.015 130.56,140.515 126.5,140.5C 125.508,140.672 124.842,140.338 124.5,139.5C 128.56,139.515 132.56,139.015 136.5,138C 140.5,137.16 143.5,134.994 145.5,131.5C 146.41,129.981 147.243,128.315 148,126.5C 148.5,118.173 148.666,109.84 148.5,101.5 Z"/></g>
<g><path style="opacity:1" fill="#734018" d="M 158.5,107.5 C 159.477,110.287 159.81,113.287 159.5,116.5C 161.167,116.5 162.833,116.5 164.5,116.5C 163.761,120.081 162.095,123.081 159.5,125.5C 158.52,122.914 158.187,120.247 158.5,117.5C 158.5,114.167 158.5,110.833 158.5,107.5 Z"/></g>
<g><path style="opacity:1" fill="#312114" d="M 157.5,93.5 C 158.451,94.9187 158.784,96.5853 158.5,98.5C 160.903,98.393 162.736,99.393 164,101.5C 167.437,109.613 167.103,117.613 163,125.5C 158.528,128.542 156.528,132.875 157,138.5C 155.412,143.052 152.245,145.885 147.5,147C 141.5,148.333 135.5,149.667 129.5,151C 130.571,151.852 131.571,152.685 132.5,153.5C 129.324,153.892 126.324,153.892 123.5,153.5C 121.52,152.516 119.853,151.183 118.5,149.5C 124.892,150.05 130.892,149.05 136.5,146.5C 143.487,146.928 149.32,144.594 154,139.5C 155.009,137.975 155.509,136.308 155.5,134.5C 156.493,126.35 156.826,118.017 156.5,109.5C 157.167,112.167 157.833,114.833 158.5,117.5C 158.187,120.247 158.52,122.914 159.5,125.5C 162.095,123.081 163.761,120.081 164.5,116.5C 164.665,112.818 164.499,109.152 164,105.5C 163.027,103.36 161.527,101.693 159.5,100.5C 158.614,101.325 158.281,102.325 158.5,103.5C 157.521,100.375 157.187,97.0419 157.5,93.5 Z"/></g>
<g><path style="opacity:1" fill="#bf7934" d="M 64.5,84.5 C 64.335,87.8499 64.5017,91.1832 65,94.5C 65.4935,92.8659 65.6602,91.1992 65.5,89.5C 67.5273,89.3379 69.5273,89.5045 71.5,90C 70.062,90.2189 68.7287,90.7189 67.5,91.5C 68.325,92.3857 69.325,92.719 70.5,92.5C 70.268,104.2 70.768,115.866 72,127.5C 73.1068,128.712 73.6068,128.379 73.5,126.5C 76.4247,136.823 83.4247,141.489 94.5,140.5C 105.167,141.833 115.833,141.833 126.5,140.5C 130.56,140.515 134.56,140.015 138.5,139C 146.206,136.769 149.873,131.602 149.5,123.5C 150.906,123.027 151.573,122.027 151.5,120.5C 154.779,117.914 155.946,118.914 155,123.5C 151.654,122.911 151.654,123.578 155,125.5C 155.498,128.482 155.665,131.482 155.5,134.5C 154.175,135.953 153.342,135.619 153,133.5C 148.021,139.525 141.854,143.358 134.5,145C 138.277,143.286 138.277,142.619 134.5,143C 133.269,144.405 131.936,145.571 130.5,146.5C 128.5,146.5 126.5,146.5 124.5,146.5C 121.5,146.5 118.5,146.5 115.5,146.5C 115.5,145.5 115.5,144.5 115.5,143.5C 104.784,143.844 94.1176,143.344 83.5,142C 80.7336,140.533 78.2336,138.7 76,136.5C 73.4065,138.805 70.5732,139.138 67.5,137.5C 66.5826,134.583 65.916,131.583 65.5,128.5C 64.678,120.201 64.0114,111.867 63.5,103.5C 63.1765,96.9779 63.5098,90.6446 64.5,84.5 Z"/></g>
<g><path style="opacity:1" fill="#291a0c" d="M 101.5,124.5 C 108.503,129.751 115.503,129.751 122.5,124.5C 123.644,127.248 122.644,129.081 119.5,130C 113.985,132.238 108.651,131.905 103.5,129C 101.963,127.89 101.297,126.39 101.5,124.5 Z"/></g>
<g><path style="opacity:1" fill="#312013" d="M 116.5,64.5 C 112.298,64.8168 108.298,64.4834 104.5,63.5C 105.833,63.5 107.167,63.5 108.5,63.5C 109.239,63.631 109.906,63.4643 110.5,63C 106.649,59.0952 101.982,57.5952 96.5,58.5C 92.8981,58.4674 89.8981,59.8007 87.5,62.5C 91.4454,63.4909 95.4454,63.8242 99.5,63.5C 95.1667,64.1667 90.8333,64.8333 86.5,65.5C 86.5,65.8333 86.5,66.1667 86.5,66.5C 78.3946,65.8623 71.7279,68.529 66.5,74.5C 66.4142,73.5041 66.7476,72.6708 67.5,72C 65.8333,71.3333 64.1667,71.3333 62.5,72C 57.6603,74.9192 52.9936,78.0859 48.5,81.5C 46.7026,83.1311 45.5359,85.1311 45,87.5C 44.5012,91.4862 44.3345,95.4862 44.5,99.5C 51.2707,98.7587 55.4374,101.759 57,108.5C 57.8608,114.585 57.5275,120.585 56,126.5C 54.395,130.276 51.5616,132.276 47.5,132.5C 48.5639,143.072 54.5639,148.072 65.5,147.5C 65.6107,148.117 65.944,148.617 66.5,149C 65.2068,149.49 63.8734,149.657 62.5,149.5C 51.5622,148.562 45.5622,142.562 44.5,131.5C 39.7561,129.361 36.9228,125.694 36,120.5C 35.3333,116.167 35.3333,111.833 36,107.5C 41.6033,102.185 43.9366,95.5183 43,87.5C 44.505,82.645 47.3383,78.8117 51.5,76C 61.7286,70.813 72.3952,66.813 83.5,64C 85.6808,60.5683 88.6808,58.0683 92.5,56.5C 93.6586,52.878 93.8253,49.2113 93,45.5C 85.5006,41.0494 83.5006,34.716 87,26.5C 94.9246,18.6463 102.591,18.9796 110,27.5C 112.795,35.1144 110.795,41.1144 104,45.5C 103.333,49.1667 103.333,52.8333 104,56.5C 108.609,58.6354 112.776,61.302 116.5,64.5 Z"/></g>
<g><path style="opacity:1" fill="#774118" d="M 54.5,109.5 C 55.6484,113.981 55.8151,118.648 55,123.5C 53.9273,128.437 51.094,130.104 46.5,128.5C 49.5741,123.504 50.2408,118.171 48.5,112.5C 49.1174,112.611 49.6174,112.944 50,113.5C 51.3968,111.93 52.8968,110.596 54.5,109.5 Z"/></g>
<g><path style="opacity:1" fill="#764017" d="M 46.5,107.5 C 47.4216,112.472 47.5883,117.472 47,122.5C 46.3591,124.813 45.0257,126.48 43,127.5C 40.3555,125.565 38.6888,122.898 38,119.5C 37.2093,115.074 37.5427,110.741 39,106.5C 39.7387,105.426 40.7387,104.759 42,104.5C 43.6434,105.315 45.1434,106.315 46.5,107.5 Z"/></g>
<g><path style="opacity:1" fill="#b16b2d" d="M 54.5,109.5 C 52.8968,110.596 51.3968,111.93 50,113.5C 49.6174,112.944 49.1174,112.611 48.5,112.5C 48.8799,110.302 48.2132,108.635 46.5,107.5C 43.1968,102.628 44.5302,100.795 50.5,102C 53.3974,103.715 54.7307,106.215 54.5,109.5 Z"/></g>
<g><path style="opacity:1" fill="#c78037" d="M 96.5,58.5 C 101.982,57.5952 106.649,59.0952 110.5,63C 109.906,63.4643 109.239,63.631 108.5,63.5C 107.063,62.2745 105.396,61.2745 103.5,60.5C 102.304,60.8457 102.304,61.3457 103.5,62C 101.866,62.4935 100.199,62.6602 98.5,62.5C 98.4729,60.8007 97.8062,59.4674 96.5,58.5 Z"/></g>
<g><path style="opacity:1" fill="#955622" d="M 96.5,58.5 C 97.8062,59.4674 98.4729,60.8007 98.5,62.5C 100.199,62.6602 101.866,62.4935 103.5,62C 102.304,61.3457 102.304,60.8457 103.5,60.5C 105.396,61.2745 107.063,62.2745 108.5,63.5C 107.167,63.5 105.833,63.5 104.5,63.5C 102.833,63.5 101.167,63.5 99.5,63.5C 95.4454,63.8242 91.4454,63.4909 87.5,62.5C 89.8981,59.8007 92.8981,58.4674 96.5,58.5 Z"/></g>
<g><path style="opacity:1" fill="#75411a" d="M 101.5,48.5 C 100.5,48.5 99.5,48.5 98.5,48.5C 98.5,51.1667 98.5,53.8333 98.5,56.5C 97.5,56.5 96.5,56.5 95.5,56.5C 95.6159,53.1401 95.9492,49.8067 96.5,46.5C 98.7812,46.0773 100.448,46.744 101.5,48.5 Z"/></g>
<g><path style="opacity:1" fill="#c07b35" d="M 101.5,48.5 C 101.5,51.1667 101.5,53.8333 101.5,56.5C 100.5,56.5 99.5,56.5 98.5,56.5C 98.5,53.8333 98.5,51.1667 98.5,48.5C 99.5,48.5 100.5,48.5 101.5,48.5 Z"/></g>
<g><path style="opacity:1" fill="#77631e" d="M 101.5,23.5 C 99.8008,23.3398 98.1341,23.5065 96.5,24C 97.731,25.1827 97.731,26.3493 96.5,27.5C 92.7348,26.2992 92.5681,26.9659 96,29.5C 97.5333,29.0563 99.0333,28.723 100.5,28.5C 101.853,29.6853 103.02,31.0186 104,32.5C 104.333,32.1667 104.667,31.8333 105,31.5C 107.178,34.4685 108.344,34.1351 108.5,30.5C 109.996,34.1778 109.329,37.5111 106.5,40.5C 104.886,39.7286 103.386,38.7286 102,37.5C 101.05,38.0223 100.216,38.689 99.5,39.5C 98.2319,37.6957 97.5652,35.6957 97.5,33.5C 95.0885,33.8633 93.5885,32.8633 93,30.5C 92.0853,31.3279 91.4186,32.3279 91,33.5C 90.6577,31.1817 91.1577,29.015 92.5,27C 91.944,26.6174 91.6107,26.1174 91.5,25.5C 92.347,24.0337 93.6803,23.2004 95.5,23C 97.7116,22.2109 99.7116,22.3775 101.5,23.5 Z"/></g>
<g><path style="opacity:1" fill="#5c4c17" d="M 91.5,25.5 C 91.6107,26.1174 91.944,26.6174 92.5,27C 91.1577,29.015 90.6577,31.1817 91,33.5C 91.4186,32.3279 92.0853,31.3279 93,30.5C 93.5885,32.8633 95.0885,33.8633 97.5,33.5C 97.5652,35.6957 98.2319,37.6957 99.5,39.5C 100.216,38.689 101.05,38.0223 102,37.5C 103.386,38.7286 104.886,39.7286 106.5,40.5C 99.339,46.4377 93.1723,45.4377 88,37.5C 87.3333,34.1667 87.3333,30.8333 88,27.5C 89.1127,26.695 90.2794,26.0283 91.5,25.5 Z"/></g>
<g><path style="opacity:1" fill="#9d8328" d="M 101.5,23.5 C 105.167,24.5 107.5,26.8333 108.5,30.5C 108.344,34.1351 107.178,34.4685 105,31.5C 104.667,31.8333 104.333,32.1667 104,32.5C 103.02,31.0186 101.853,29.6853 100.5,28.5C 99.0333,28.723 97.5333,29.0563 96,29.5C 92.5681,26.9659 92.7348,26.2992 96.5,27.5C 97.731,26.3493 97.731,25.1827 96.5,24C 98.1341,23.5065 99.8008,23.3398 101.5,23.5 Z"/></g>
<g><path style="opacity:1" fill="#b16b2c" d="M 124.5,146.5 C 110.984,147.749 97.3177,147.749 83.5,146.5C 79.3269,146.123 75.3269,145.123 71.5,143.5C 69.7484,141.754 68.4151,139.754 67.5,137.5C 70.5732,139.138 73.4065,138.805 76,136.5C 78.2336,138.7 80.7336,140.533 83.5,142C 94.1176,143.344 104.784,143.844 115.5,143.5C 115.5,144.5 115.5,145.5 115.5,146.5C 118.5,146.5 121.5,146.5 124.5,146.5 Z"/></g>
<g><path style="opacity:1" fill="#6f3c16" d="M 66.5,74.5 C 64.0912,77.3484 62.4245,80.6817 61.5,84.5C 60.5224,84.9767 59.6891,85.6433 59,86.5C 58.7088,84.217 59.2088,82.0503 60.5,80C 60.3893,78.2785 59.8893,78.1118 59,79.5C 56.8674,87.6868 56.2007,96.0201 57,104.5C 57.2213,107.943 58.2213,108.276 60,105.5C 60.5798,102.453 60.2465,102.119 59,104.5C 58.3179,102.062 58.8179,99.8951 60.5,98C 60.3333,97.5 60.1667,97 60,96.5C 59.6924,97.3081 59.1924,97.9747 58.5,98.5C 56.5637,93.6068 57.7304,89.2734 62,85.5C 62.1724,91.6807 62.6724,97.6807 63.5,103.5C 64.0114,111.867 64.678,120.201 65.5,128.5C 64.4184,132.266 64.7517,136.099 66.5,140C 64.0638,141.332 64.0638,142.499 66.5,143.5C 68.1284,142.465 69.795,142.465 71.5,143.5C 70.5353,146.32 68.5353,147.653 65.5,147.5C 54.5639,148.072 48.5639,143.072 47.5,132.5C 51.5616,132.276 54.395,130.276 56,126.5C 57.5275,120.585 57.8608,114.585 57,108.5C 55.4374,101.759 51.2707,98.7587 44.5,99.5C 44.3345,95.4862 44.5012,91.4862 45,87.5C 45.5359,85.1311 46.7026,83.1311 48.5,81.5C 52.9936,78.0859 57.6603,74.9192 62.5,72C 64.1667,71.3333 65.8333,71.3333 67.5,72C 66.7476,72.6708 66.4142,73.5041 66.5,74.5 Z"/></g>
<g><path style="opacity:1" fill="#382310" d="M 99.5,139.5 C 107.833,139.5 116.167,139.5 124.5,139.5C 124.842,140.338 125.508,140.672 126.5,140.5C 115.833,141.833 105.167,141.833 94.5,140.5C 96.4147,140.784 98.0813,140.451 99.5,139.5 Z"/></g>
<g><path style="opacity:1" fill="#482912" d="M 65.5,128.5 C 65.916,131.583 66.5826,134.583 67.5,137.5C 68.4151,139.754 69.7484,141.754 71.5,143.5C 69.795,142.465 68.1284,142.465 66.5,143.5C 64.0638,142.499 64.0638,141.332 66.5,140C 64.7517,136.099 64.4184,132.266 65.5,128.5 Z"/></g>
<g><path style="opacity:1" fill="#a56026" d="M 155.5,134.5 C 155.509,136.308 155.009,137.975 154,139.5C 149.32,144.594 143.487,146.928 136.5,146.5C 134.5,146.5 132.5,146.5 130.5,146.5C 131.936,145.571 133.269,144.405 134.5,143C 138.277,142.619 138.277,143.286 134.5,145C 141.854,143.358 148.021,139.525 153,133.5C 153.342,135.619 154.175,135.953 155.5,134.5 Z"/></g>
<g><path style="opacity:1" fill="#583012" d="M 83.5,146.5 C 97.3177,147.749 110.984,147.749 124.5,146.5C 126.5,146.5 128.5,146.5 130.5,146.5C 132.5,146.5 134.5,146.5 136.5,146.5C 130.892,149.05 124.892,150.05 118.5,149.5C 102.118,149.923 85.7847,149.423 69.5,148C 70.6621,147.173 71.8288,146.34 73,145.5C 76.541,147.353 80.041,147.686 83.5,146.5 Z"/></g>
<g><path style="opacity:1" fill="#81755e" d="M 67.5,210.5 C 68.5,210.5 69.5,210.5 70.5,210.5C 70.5,212.833 70.5,215.167 70.5,217.5C 69.8953,215.026 68.8953,212.693 67.5,210.5 Z"/></g>
<g><path style="opacity:1" fill="#342112" d="M 62.5,149.5 C 63.8734,149.657 65.2068,149.49 66.5,149C 65.944,148.617 65.6107,148.117 65.5,147.5C 68.5353,147.653 70.5353,146.32 71.5,143.5C 75.3269,145.123 79.3269,146.123 83.5,146.5C 80.041,147.686 76.541,147.353 73,145.5C 71.8288,146.34 70.6621,147.173 69.5,148C 85.7847,149.423 102.118,149.923 118.5,149.5C 119.853,151.183 121.52,152.516 123.5,153.5C 122.365,155.213 120.698,155.88 118.5,155.5C 117.833,155.5 117.167,155.5 116.5,155.5C 115.85,155.196 115.183,154.863 114.5,154.5C 110.697,155.104 107.031,155.77 103.5,156.5C 102.833,156.5 102.167,156.5 101.5,156.5C 101.389,155.883 101.056,155.383 100.5,155C 97.438,154.259 94.438,154.425 91.5,155.5C 85.9543,153.708 80.2876,153.208 74.5,154C 72.6969,154.637 71.3636,155.803 70.5,157.5C 83.0781,160.038 95.0781,163.371 106.5,167.5C 102.757,169.066 99.4236,168.399 96.5,165.5C 95.8933,165.624 95.56,165.957 95.5,166.5C 93.1417,166.747 91.1417,166.081 89.5,164.5C 88.6661,163.252 87.3328,162.585 85.5,162.5C 83.6672,162.585 82.3339,163.252 81.5,164.5C 82.1667,165.833 82.8333,167.167 83.5,168.5C 83.5,170.5 83.5,172.5 83.5,174.5C 83.3335,184.839 83.5002,195.172 84,205.5C 84.6488,208.647 86.4821,210.647 89.5,211.5C 100.167,212.833 110.833,212.833 121.5,211.5C 124.85,211.665 128.183,211.498 131.5,211C 134.191,210.844 136.524,210.011 138.5,208.5C 138.783,207.711 139.283,207.044 140,206.5C 140.667,193.167 140.667,179.833 140,166.5C 138.85,161.508 136.017,160.175 131.5,162.5C 132.714,161.374 133.714,160.041 134.5,158.5C 134.547,156.962 133.88,155.962 132.5,155.5C 132.5,154.833 132.5,154.167 132.5,153.5C 135.906,157.383 140.072,160.383 145,162.5C 147.915,166.653 149.249,171.32 149,176.5C 151.248,179.328 153.248,182.328 155,185.5C 161.683,191.518 167.683,198.185 173,205.5C 173.333,207.5 173.667,209.5 174,211.5C 181.535,217.253 184.702,224.92 183.5,234.5C 182.657,232.513 181.99,230.346 181.5,228C 181.164,226.97 180.497,226.47 179.5,226.5C 180.663,220.978 178.663,216.978 173.5,214.5C 173.565,214.062 173.399,213.728 173,213.5C 170.833,215.667 168.667,217.833 166.5,220C 167.653,223.495 169.32,226.662 171.5,229.5C 169.173,232.144 168.506,235.144 169.5,238.5C 170.086,238.291 170.586,237.957 171,237.5C 171.333,235.833 171.667,234.167 172,232.5C 172.179,236.025 172.679,239.359 173.5,242.5C 176.344,242.657 178.011,241.324 178.5,238.5C 179.167,238.833 179.833,239.167 180.5,239.5C 179.198,244.188 176.365,245.521 172,243.5C 171.517,242.552 171.351,241.552 171.5,240.5C 169.856,240.714 168.356,240.38 167,239.5C 166.336,236.484 166.836,233.651 168.5,231C 168.167,230.5 167.833,230 167.5,229.5C 166.298,232.07 164.965,234.57 163.5,237C 160.364,238.041 157.864,237.207 156,234.5C 155.228,230.11 155.394,225.777 156.5,221.5C 151.937,217.04 148.937,211.707 147.5,205.5C 146.061,201.979 144.728,198.312 143.5,194.5C 142.895,199.577 142.062,204.577 141,209.5C 138.282,211.794 135.115,212.794 131.5,212.5C 131.081,217.396 130.414,222.229 129.5,227C 131.276,237.027 132.776,247.193 134,257.5C 139.053,259.719 142.553,263.386 144.5,268.5C 144.657,269.873 144.49,271.207 144,272.5C 143.79,270.942 143.29,269.609 142.5,268.5C 137.995,259.911 131.328,257.578 122.5,261.5C 121.29,261.932 120.29,262.599 119.5,263.5C 115.723,265.721 114.056,269.054 114.5,273.5C 122.975,274.755 131.308,274.755 139.5,273.5C 141.167,273.5 142.833,273.5 144.5,273.5C 143.158,274.793 141.491,275.626 139.5,276C 133.509,276.499 127.509,276.666 121.5,276.5C 115.927,275.7 110.261,274.7 104.5,273.5C 104.5,271.5 104.5,269.5 104.5,267.5C 106.1,262.388 106.933,257.055 107,251.5C 108.045,247.656 109.545,243.99 111.5,240.5C 110.978,239.393 110.645,238.226 110.5,237C 112.247,232.738 112.913,228.238 112.5,223.5C 105.867,224.214 99.2,224.714 92.5,225C 91.5838,225.374 90.7504,225.874 90,226.5C 90.717,240.567 91.8836,254.567 93.5,268.5C 93.7214,271.279 93.388,273.946 92.5,276.5C 82.4761,279.166 72.4761,278.999 62.5,276C 61.565,273.619 61.2317,271.119 61.5,268.5C 64.438,256.625 67.938,244.958 72,233.5C 73.0544,227.886 72.5544,222.552 70.5,217.5C 70.5,215.167 70.5,212.833 70.5,210.5C 69.5,210.5 68.5,210.5 67.5,210.5C 64.297,210.318 62.4637,208.652 62,205.5C 61.6667,198.833 61.3333,192.167 61,185.5C 55.5061,189.008 50.3394,192.841 45.5,197C 43.5,197.667 41.5,197.667 39.5,197C 36.6399,194.446 33.3065,192.779 29.5,192C 24.8994,184.965 21.2328,177.465 18.5,169.5C 14.103,164.387 9.93637,159.053 6,153.5C 2.36467,149.376 2.698,145.709 7,142.5C 6.42723,136.241 9.26056,132.908 15.5,132.5C 17.1231,128.942 19.7897,127.776 23.5,129C 27.0599,133.563 30.2266,138.396 33,143.5C 33.2718,140.568 34.4385,138.068 36.5,136C 42.6608,135.33 45.3275,138.164 44.5,144.5C 43.7911,149.856 43.2911,155.189 43,160.5C 45.1822,164.864 47.3489,169.198 49.5,173.5C 50.914,172.376 52.414,171.376 54,170.5C 54.6513,166.363 56.4847,162.863 59.5,160C 64.8707,157.79 69.8707,154.957 74.5,151.5C 70.3525,150.833 66.3525,150.166 62.5,149.5 Z"/></g>
<g><path style="opacity:1" fill="#9b5b25" d="M 159.5,220.5 C 165.191,220.548 166.857,223.215 164.5,228.5C 163.549,227.674 162.549,227.508 161.5,228C 165.291,230.664 165.124,233.164 161,235.5C 157.157,233.62 156.657,231.12 159.5,228C 158.572,227.612 157.905,226.945 157.5,226C 158.077,224.1 158.744,222.267 159.5,220.5 Z"/></g>
<g><path style="opacity:1" fill="#b66e2e" d="M 126.5,232.5 C 125.041,232.433 123.708,232.766 122.5,233.5C 120.692,232.082 120.025,230.082 120.5,227.5C 122.582,227.528 124.416,226.861 126,225.5C 126.497,227.81 126.663,230.143 126.5,232.5 Z"/></g>
<g><path style="opacity:1" fill="#ad6528" d="M 86.5,233.5 C 85.3684,234.354 84.035,234.354 82.5,233.5C 81.4324,232.566 80.099,232.232 78.5,232.5C 77.3445,225.842 79.8445,223.842 86,226.5C 86.4966,228.81 86.6633,231.143 86.5,233.5 Z"/></g>
<g><path style="opacity:1" fill="#7e461b" d="M 126.5,232.5 C 126.663,230.143 126.497,227.81 126,225.5C 124.416,226.861 122.582,227.528 120.5,227.5C 120.025,230.082 120.692,232.082 122.5,233.5C 121.828,234.267 120.995,234.934 120,235.5C 118.736,233.393 116.903,232.393 114.5,232.5C 114.5,230.167 114.5,227.833 114.5,225.5C 118.989,225.113 123.323,224.113 127.5,222.5C 127.813,226.042 127.479,229.375 126.5,232.5 Z"/></g>
<g><path style="opacity:1" fill="#f2d4a8" d="M 104.5,267.5 C 100.936,268.423 97.2693,268.756 93.5,268.5C 91.8836,254.567 90.717,240.567 90,226.5C 90.7504,225.874 91.5838,225.374 92.5,225C 99.2,224.714 105.867,224.214 112.5,223.5C 112.913,228.238 112.247,232.738 110.5,237C 110.645,238.226 110.978,239.393 111.5,240.5C 109.545,243.99 108.045,247.656 107,251.5C 106.933,257.055 106.1,262.388 104.5,267.5 Z"/></g>
<g><path style="opacity:1" fill="#864a1c" d="M 173.5,214.5 C 172.741,216.436 171.741,218.269 170.5,220C 171.556,223.293 173.223,226.126 175.5,228.5C 174.432,229.434 173.099,229.768 171.5,229.5C 169.32,226.662 167.653,223.495 166.5,220C 168.667,217.833 170.833,215.667 173,213.5C 173.399,213.728 173.565,214.062 173.5,214.5 Z"/></g>
<g><path style="opacity:1" fill="#b7702f" d="M 173.5,214.5 C 178.663,216.978 180.663,220.978 179.5,226.5C 178.395,227.6 177.062,228.267 175.5,228.5C 173.223,226.126 171.556,223.293 170.5,220C 171.741,218.269 172.741,216.436 173.5,214.5 Z"/></g>
<g><path style="opacity:1" fill="#774118" d="M 86.5,233.5 C 86.6633,231.143 86.4966,228.81 86,226.5C 79.8445,223.842 77.3445,225.842 78.5,232.5C 80.099,232.232 81.4324,232.566 82.5,233.5C 79.8333,233.5 77.1667,233.5 74.5,233.5C 74.5,228.833 74.5,224.167 74.5,219.5C 84.9379,219.241 88.9379,223.907 86.5,233.5 Z"/></g>
<g><path style="opacity:1" fill="#6c3b16" d="M 125.5,214.5 C 126.833,214.5 128.167,214.5 129.5,214.5C 129.607,216.903 128.607,218.736 126.5,220C 123.009,221.791 119.342,222.458 115.5,222C 118.734,219.252 122.068,216.752 125.5,214.5 Z"/></g>
<g><path style="opacity:1" fill="#713d17" d="M 72.5,213.5 C 77.9007,212.966 82.9007,214.133 87.5,217C 90.2735,218.605 90.9402,220.772 89.5,223.5C 84.759,219.028 79.0923,216.695 72.5,216.5C 72.5,215.5 72.5,214.5 72.5,213.5 Z"/></g>
<g><path style="opacity:1" fill="#693915" d="M 94.5,214.5 C 102.528,214.169 110.528,214.502 118.5,215.5C 115.843,218.647 112.51,220.814 108.5,222C 104.179,222.499 99.8461,222.666 95.5,222.5C 95.5987,219.763 95.2653,217.096 94.5,214.5 Z"/></g>
<g><path style="opacity:1" fill="#723e17" d="M 98.5,207.5 C 98.8333,207.5 99.1667,207.5 99.5,207.5C 99.5,208.833 99.5,210.167 99.5,211.5C 103.03,212.011 106.196,211.344 109,209.5C 112.836,211.389 117.003,212.055 121.5,211.5C 110.833,212.833 100.167,212.833 89.5,211.5C 92.5,211.5 95.5,211.5 98.5,211.5C 98.5,210.167 98.5,208.833 98.5,207.5 Z"/></g>
<g><path style="opacity:1" fill="#80461a" d="M 151.5,199.5 C 153.246,202.663 154.746,205.996 156,209.5C 157.399,210.227 158.899,210.727 160.5,211C 158.355,211.743 158.189,212.576 160,213.5C 162.251,212.44 164.418,211.607 166.5,211C 164.679,212.743 162.679,214.243 160.5,215.5C 162.045,216.452 163.712,216.785 165.5,216.5C 162.772,218.076 159.772,218.576 156.5,218C 153.111,214.031 150.111,209.864 147.5,205.5C 147.5,203.833 147.5,202.167 147.5,200.5C 148.959,200.567 150.292,200.234 151.5,199.5 Z"/></g>
<g><path style="opacity:1" fill="#a45c23" d="M 138.5,208.5 C 136.524,210.011 134.191,210.844 131.5,211C 128.183,211.498 124.85,211.665 121.5,211.5C 117.003,212.055 112.836,211.389 109,209.5C 106.196,211.344 103.03,212.011 99.5,211.5C 99.5,210.167 99.5,208.833 99.5,207.5C 107.174,207.666 114.841,207.5 122.5,207C 126.893,206.983 131.06,206.15 135,204.5C 135.333,204.833 135.667,205.167 136,205.5C 137.232,202.7 137.899,199.7 138,196.5C 138.308,200.738 138.475,204.738 138.5,208.5 Z"/></g>
<g><path style="opacity:1" fill="#b36b2c" d="M 165.5,216.5 C 163.712,216.785 162.045,216.452 160.5,215.5C 162.679,214.243 164.679,212.743 166.5,211C 164.418,211.607 162.251,212.44 160,213.5C 158.189,212.576 158.355,211.743 160.5,211C 158.899,210.727 157.399,210.227 156,209.5C 154.746,205.996 153.246,202.663 151.5,199.5C 154.245,198.263 156.578,196.43 158.5,194C 160.367,193.289 161.867,193.789 163,195.5C 165.333,198.5 167.667,201.5 170,204.5C 172.699,210.098 171.199,214.098 165.5,216.5 Z"/></g>
<g><path style="opacity:1" fill="#83491c" d="M 154.5,188.5 C 157.076,188.722 157.91,190.055 157,192.5C 154.45,196.192 150.95,197.858 146.5,197.5C 146.5,196.5 146.5,195.5 146.5,194.5C 150.627,194.365 153.294,192.365 154.5,188.5 Z"/></g>
<g><path style="opacity:1" fill="#a86328" d="M 91.5,173.5 C 91.1806,183.749 91.5139,193.916 92.5,204C 105.162,204.5 117.829,204.667 130.5,204.5C 117.994,205.167 105.327,205.833 92.5,206.5C 94.396,207.466 96.396,207.799 98.5,207.5C 98.5,208.833 98.5,210.167 98.5,211.5C 95.5,211.5 92.5,211.5 89.5,211.5C 86.4821,210.647 84.6488,208.647 84,205.5C 83.5002,195.172 83.3335,184.839 83.5,174.5C 84.9179,179.602 85.7513,184.936 86,190.5C 86.3333,185.167 86.6667,179.833 87,174.5C 88.0761,177.36 88.9095,180.36 89.5,183.5C 90.1672,180.023 90.8339,176.689 91.5,173.5 Z"/></g>
<g><path style="opacity:1" fill="#9b5823" d="M 146.5,178.5 C 152.081,180.929 153.581,184.929 151,190.5C 143.588,194.099 140.921,191.765 143,183.5C 144.176,181.804 145.343,180.138 146.5,178.5 Z"/></g>
<g><path style="opacity:1" fill="#784218" d="M 49.5,185.5 C 50.3764,185.369 51.0431,185.702 51.5,186.5C 50.818,192.694 47.4846,195.194 41.5,194C 45.0705,191.932 47.7371,189.099 49.5,185.5 Z"/></g>
<g><path style="opacity:1" fill="#6b3a16" d="M 81.5,164.5 C 82.2248,178.816 82.7248,193.15 83,207.5C 83.4652,208.931 84.2986,210.097 85.5,211C 78.4333,210.768 71.4333,209.768 64.5,208C 63.187,200.558 63.187,193.058 64.5,185.5C 74.3854,186.787 79.0521,182.287 78.5,172C 78.8584,168.242 77.8584,164.909 75.5,162C 76.5,161.333 77.5,161.333 78.5,162C 79.3734,163.045 80.3734,163.878 81.5,164.5 Z"/></g>
<g><path style="opacity:1" fill="#c17934" d="M 89.5,164.5 C 91.1417,166.081 93.1417,166.747 95.5,166.5C 98.6045,169.034 102.271,170.201 106.5,170C 101.981,170.175 97.6472,170.675 93.5,171.5C 92.5,171.833 91.8333,172.5 91.5,173.5C 90.8339,176.689 90.1672,180.023 89.5,183.5C 88.9095,180.36 88.0761,177.36 87,174.5C 86.6667,179.833 86.3333,185.167 86,190.5C 85.7513,184.936 84.9179,179.602 83.5,174.5C 83.5,172.5 83.5,170.5 83.5,168.5C 83.5,167.167 83.5,165.833 83.5,164.5C 85.6119,165.275 87.6119,165.275 89.5,164.5 Z"/></g>
<g><path style="opacity:1" fill="#130a05" d="M 93.5,171.5 C 106.5,171.5 119.5,171.5 132.5,171.5C 132.5,171.833 132.5,172.167 132.5,172.5C 133.828,177.119 134.494,182.119 134.5,187.5C 134.333,192.5 134.167,197.5 134,202.5C 133.184,203.823 132.017,204.489 130.5,204.5C 117.829,204.667 105.162,204.5 92.5,204C 91.5139,193.916 91.1806,183.749 91.5,173.5C 91.8333,172.5 92.5,171.833 93.5,171.5 Z"/></g>
<g><path style="opacity:1" fill="#b9712f" d="M 93.5,173.5 C 93.3932,175.379 93.8932,175.712 95,174.5C 96.3024,175.085 97.469,175.751 98.5,176.5C 97.5,176.5 96.5,176.5 95.5,176.5C 95.5,177.5 95.5,178.5 95.5,179.5C 94.7321,178.737 94.2321,177.737 94,176.5C 93.1171,181.083 93.7838,185.417 96,189.5C 96.1858,187.1 96.6858,184.766 97.5,182.5C 98.2978,184.078 98.7978,185.744 99,187.5C 99.6667,188.833 100.333,188.833 101,187.5C 101.92,184.899 102.587,182.232 103,179.5C 104.548,183.678 104.715,187.844 103.5,192C 105.235,193.985 106.568,193.651 107.5,191C 105.717,189.933 105.217,188.433 106,186.5C 108.561,183.95 108.728,181.117 106.5,178C 106.833,176.833 107.167,175.667 107.5,174.5C 108.314,176.766 108.814,179.1 109,181.5C 109.219,180.062 109.719,178.729 110.5,177.5C 110.833,177.833 111.167,178.167 111.5,178.5C 110.783,184.752 110.783,191.085 111.5,197.5C 112.167,190.167 112.833,182.833 113.5,175.5C 114.814,183.392 114.814,191.225 113.5,199C 114.449,199.617 115.282,199.451 116,198.5C 116.333,196.5 116.667,194.5 117,192.5C 118.316,195.688 118.816,199.022 118.5,202.5C 121.85,202.665 125.183,202.498 128.5,202C 125.5,201.667 122.5,201.333 119.5,201C 120.328,200.085 121.328,199.419 122.5,199C 121.833,198 121.167,197 120.5,196C 120.246,189.014 120.579,181.847 121.5,174.5C 122.327,178.459 122.827,182.459 123,186.5C 123.667,187.167 124.333,187.833 125,188.5C 125.333,185.833 125.667,183.167 126,180.5C 127.266,184.395 127.766,188.395 127.5,192.5C 128.5,192.5 129.5,192.5 130.5,192.5C 130.335,189.15 130.502,185.817 131,182.5C 131.172,189.013 131.672,195.347 132.5,201.5C 131.737,202.268 130.737,202.768 129.5,203C 117.5,203.667 105.5,203.667 93.5,203C 92.1714,193.069 92.1714,183.235 93.5,173.5 Z"/></g>
<g><path style="opacity:1" fill="#83481b" d="M 54.5,180.5 C 54.6503,188.209 53.6503,188.209 51.5,180.5C 51.6667,179.833 51.8333,179.167 52,178.5C 52.7083,179.381 53.5416,180.047 54.5,180.5 Z"/></g>
<g><path style="opacity:1" fill="#ab6428" d="M 48.5,183.5 C 47.1897,186.473 45.1897,188.807 42.5,190.5C 41.325,190.719 40.325,190.386 39.5,189.5C 37.3637,185.394 35.3637,181.228 33.5,177C 34.1301,175.69 35.1301,174.856 36.5,174.5C 38.0743,176.643 39.4077,178.976 40.5,181.5C 41.6888,182.429 43.0222,182.762 44.5,182.5C 44.0761,179.646 43.0761,176.979 41.5,174.5C 41.8333,174.167 42.1667,173.833 42.5,173.5C 44.5259,176.897 46.5259,180.23 48.5,183.5 Z"/></g>
<g><path style="opacity:1" fill="#bc7632" d="M 138.5,208.5 C 138.475,204.738 138.308,200.738 138,196.5C 137.899,199.7 137.232,202.7 136,205.5C 135.667,205.167 135.333,204.833 135,204.5C 131.06,206.15 126.893,206.983 122.5,207C 114.841,207.5 107.174,207.666 99.5,207.5C 99.1667,207.5 98.8333,207.5 98.5,207.5C 96.396,207.799 94.396,207.466 92.5,206.5C 105.327,205.833 117.994,205.167 130.5,204.5C 132.017,204.489 133.184,203.823 134,202.5C 134.167,197.5 134.333,192.5 134.5,187.5C 134.494,182.119 133.828,177.119 132.5,172.5C 132.5,172.167 132.5,171.833 132.5,171.5C 126.167,170.833 119.833,170.167 113.5,169.5C 116.079,168.772 118.746,168.272 121.5,168C 124.673,165.634 128.006,163.801 131.5,162.5C 136.017,160.175 138.85,161.508 140,166.5C 140.667,179.833 140.667,193.167 140,206.5C 139.283,207.044 138.783,207.711 138.5,208.5 Z"/></g>
<g><path style="opacity:1" fill="#4f4013" d="M 76.5,172.5 C 76.6342,176.964 74.9676,180.464 71.5,183C 69.7412,183.798 68.0745,183.631 66.5,182.5C 68.0553,180.057 68.722,177.39 68.5,174.5C 71.1667,173.833 73.8333,173.167 76.5,172.5 Z"/></g>
<g><path style="opacity:1" fill="#703d17" d="M 56.5,182.5 C 64.3892,179.531 65.3892,175.198 59.5,169.5C 60.8845,168.199 62.3845,168.199 64,169.5C 66.271,172.12 66.9377,175.12 66,178.5C 63.3619,181.317 60.3619,183.65 57,185.5C 56.5172,184.552 56.3505,183.552 56.5,182.5 Z"/></g>
<g><path style="opacity:1" fill="#7f461a" d="M 42.5,166.5 C 43.1667,166.5 43.5,166.833 43.5,167.5C 41.5272,170.139 39.1939,172.473 36.5,174.5C 35.1301,174.856 34.1301,175.69 33.5,177C 35.3637,181.228 37.3637,185.394 39.5,189.5C 40.325,190.386 41.325,190.719 42.5,190.5C 38.2878,191.997 34.1211,191.664 30,189.5C 28.1667,185.833 26.3333,182.167 24.5,178.5C 26.4233,177.692 28.4233,177.192 30.5,177C 26.6932,177.008 23.6932,175.508 21.5,172.5C 25.0853,172.712 28.752,172.379 32.5,171.5C 32.281,172.675 32.6143,173.675 33.5,174.5C 37.1664,172.496 40.1664,169.829 42.5,166.5 Z"/></g>
<g><path style="opacity:1" fill="#c57e37" d="M 43.5,167.5 C 47.1527,172.129 48.8193,177.462 48.5,183.5C 46.5259,180.23 44.5259,176.897 42.5,173.5C 42.1667,173.833 41.8333,174.167 41.5,174.5C 43.0761,176.979 44.0761,179.646 44.5,182.5C 43.0222,182.762 41.6888,182.429 40.5,181.5C 39.4077,178.976 38.0743,176.643 36.5,174.5C 39.1939,172.473 41.5272,170.139 43.5,167.5 Z"/></g>
<g><path style="opacity:1" fill="#c78038" d="M 132.5,172.5 C 133.817,182.265 133.817,191.932 132.5,201.5C 131.672,195.347 131.172,189.013 131,182.5C 130.502,185.817 130.335,189.15 130.5,192.5C 129.5,192.5 128.5,192.5 127.5,192.5C 127.766,188.395 127.266,184.395 126,180.5C 125.667,183.167 125.333,185.833 125,188.5C 124.333,187.833 123.667,187.167 123,186.5C 122.827,182.459 122.327,178.459 121.5,174.5C 120.579,181.847 120.246,189.014 120.5,196C 121.167,197 121.833,198 122.5,199C 121.328,199.419 120.328,200.085 119.5,201C 122.5,201.333 125.5,201.667 128.5,202C 125.183,202.498 121.85,202.665 118.5,202.5C 118.816,199.022 118.316,195.688 117,192.5C 116.667,194.5 116.333,196.5 116,198.5C 115.282,199.451 114.449,199.617 113.5,199C 114.814,191.225 114.814,183.392 113.5,175.5C 112.833,182.833 112.167,190.167 111.5,197.5C 110.783,191.085 110.783,184.752 111.5,178.5C 111.167,178.167 110.833,177.833 110.5,177.5C 109.719,178.729 109.219,180.062 109,181.5C 108.814,179.1 108.314,176.766 107.5,174.5C 107.167,175.667 106.833,176.833 106.5,178C 108.728,181.117 108.561,183.95 106,186.5C 105.217,188.433 105.717,189.933 107.5,191C 106.568,193.651 105.235,193.985 103.5,192C 104.715,187.844 104.548,183.678 103,179.5C 102.587,182.232 101.92,184.899 101,187.5C 100.333,188.833 99.6667,188.833 99,187.5C 98.7978,185.744 98.2978,184.078 97.5,182.5C 96.6858,184.766 96.1858,187.1 96,189.5C 93.7838,185.417 93.1171,181.083 94,176.5C 94.2321,177.737 94.7321,178.737 95.5,179.5C 96.2506,180.573 97.2506,180.74 98.5,180C 99.7911,178.708 99.7911,177.542 98.5,176.5C 97.469,175.751 96.3024,175.085 95,174.5C 93.8932,175.712 93.3932,175.379 93.5,173.5C 106.323,172.505 119.323,172.171 132.5,172.5 Z"/></g>
<g><path style="opacity:1" fill="#482f1a" d="M 127.5,176.5 C 129.346,176.222 130.68,176.889 131.5,178.5C 130.68,180.111 129.346,180.778 127.5,180.5C 127.5,179.167 127.5,177.833 127.5,176.5 Z"/></g>
<g><path style="opacity:1" fill="#342214" d="M 98.5,176.5 C 99.7911,177.542 99.7911,178.708 98.5,180C 97.2506,180.74 96.2506,180.573 95.5,179.5C 95.5,178.5 95.5,177.5 95.5,176.5C 96.5,176.5 97.5,176.5 98.5,176.5 Z"/></g>
<g><path style="opacity:1" fill="#b97230" d="M 59.5,169.5 C 65.3892,175.198 64.3892,179.531 56.5,182.5C 55.8333,181.833 55.1667,181.167 54.5,180.5C 53.9524,178.606 52.9524,176.94 51.5,175.5C 53.8003,173.016 56.4669,171.016 59.5,169.5 Z"/></g>
<g><path style="opacity:1" fill="#a3682c" d="M 95.5,166.5 C 95.56,165.957 95.8933,165.624 96.5,165.5C 99.4236,168.399 102.757,169.066 106.5,167.5C 106.611,168.117 106.944,168.617 107.5,169C 109.473,169.495 111.473,169.662 113.5,169.5C 119.833,170.167 126.167,170.833 132.5,171.5C 119.5,171.5 106.5,171.5 93.5,171.5C 97.6472,170.675 101.981,170.175 106.5,170C 102.271,170.201 98.6045,169.034 95.5,166.5 Z"/></g>
<g><path style="opacity:1" fill="#6c5a1c" d="M 140.5,162.5 C 147.575,166.964 148.409,172.631 143,179.5C 142.794,173.715 141.96,168.048 140.5,162.5 Z"/></g>
<g><path style="opacity:1" fill="#794218" d="M 14.5,157.5 C 14.3309,162.041 14.9975,162.374 16.5,158.5C 19.1451,162.489 22.8117,164.323 27.5,164C 28.756,163.583 29.4226,162.75 29.5,161.5C 29.8333,161.5 30.1667,161.5 30.5,161.5C 31.4859,163.516 33.1526,164.849 35.5,165.5C 32.0164,169.294 27.6831,170.461 22.5,169C 19.0584,167.719 16.3917,165.553 14.5,162.5C 13.2121,160.701 13.2121,159.035 14.5,157.5 Z"/></g>
<g><path style="opacity:1" fill="#3a2611" d="M 131.5,162.5 C 128.006,163.801 124.673,165.634 121.5,168C 118.746,168.272 116.079,168.772 113.5,169.5C 111.473,169.662 109.473,169.495 107.5,169C 106.944,168.617 106.611,168.117 106.5,167.5C 108.722,166.614 110.888,166.614 113,167.5C 114.261,167.241 115.261,166.574 116,165.5C 118.785,166.907 121.285,166.574 123.5,164.5C 125.82,162.774 128.487,162.107 131.5,162.5 Z"/></g>
<g><path style="opacity:1" fill="#b77130" d="M 42.5,166.5 C 40.1664,169.829 37.1664,172.496 33.5,174.5C 32.6143,173.675 32.281,172.675 32.5,171.5C 36.5076,169.658 39.3409,166.658 41,162.5C 42.1882,163.563 42.6882,164.897 42.5,166.5 Z"/></g>
<g><path style="opacity:1" fill="#7b671f" d="M 76.5,172.5 C 73.8333,173.167 71.1667,173.833 68.5,174.5C 68.9627,167.112 65.796,164.445 59,166.5C 58.7967,163.339 60.2967,161.172 63.5,160C 72.1382,159.468 76.4715,163.635 76.5,172.5 Z"/></g>
<g><path style="opacity:1" fill="#5a4916" d="M 101.5,156.5 C 99.8868,156.944 98.7202,157.944 98,159.5C 96.5074,157.44 94.6741,157.107 92.5,158.5C 93.6461,159.719 94.6461,161.052 95.5,162.5C 97.6117,161.801 99.6117,162.301 101.5,164C 107.418,165.989 113.251,165.822 119,163.5C 120.44,164.148 121.94,164.481 123.5,164.5C 121.285,166.574 118.785,166.907 116,165.5C 115.261,166.574 114.261,167.241 113,167.5C 110.888,166.614 108.722,166.614 106.5,167.5C 95.0781,163.371 83.0781,160.038 70.5,157.5C 71.3636,155.803 72.6969,154.637 74.5,154C 80.2876,153.208 85.9543,153.708 91.5,155.5C 94.438,154.425 97.438,154.259 100.5,155C 101.056,155.383 101.389,155.883 101.5,156.5 Z"/></g>
<g><path style="opacity:1" fill="#74431a" d="M 89.5,164.5 C 87.6119,165.275 85.6119,165.275 83.5,164.5C 83.5,165.833 83.5,167.167 83.5,168.5C 82.8333,167.167 82.1667,165.833 81.5,164.5C 82.3339,163.252 83.6672,162.585 85.5,162.5C 87.3328,162.585 88.6661,163.252 89.5,164.5 Z"/></g>
<g><path style="opacity:1" fill="#b56d2d" d="M 29.5,144.5 C 31.2517,144.418 32.2517,145.251 32.5,147C 31.5862,148.406 30.9195,149.906 30.5,151.5C 29.8826,151.611 29.3826,151.944 29,152.5C 28.2642,155.592 28.4309,158.592 29.5,161.5C 29.4226,162.75 28.756,163.583 27.5,164C 22.8117,164.323 19.1451,162.489 16.5,158.5C 14.9975,162.374 14.3309,162.041 14.5,157.5C 15.5434,154.944 17.2101,152.777 19.5,151C 22.7278,148.56 26.0611,146.394 29.5,144.5 Z"/></g>
<g><path style="opacity:1" fill="#8c7524" d="M 116.5,155.5 C 117.167,155.5 117.833,155.5 118.5,155.5C 118.415,156.995 119.081,157.995 120.5,158.5C 124.378,156.991 128.378,155.991 132.5,155.5C 133.88,155.962 134.547,156.962 134.5,158.5C 133.714,160.041 132.714,161.374 131.5,162.5C 128.487,162.107 125.82,162.774 123.5,164.5C 121.94,164.481 120.44,164.148 119,163.5C 113.251,165.822 107.418,165.989 101.5,164C 99.6117,162.301 97.6117,161.801 95.5,162.5C 94.6461,161.052 93.6461,159.719 92.5,158.5C 94.6741,157.107 96.5074,157.44 98,159.5C 98.7202,157.944 99.8868,156.944 101.5,156.5C 102.167,156.5 102.833,156.5 103.5,156.5C 104.482,157.141 105.482,157.807 106.5,158.5C 108.5,157.167 110.5,157.167 112.5,158.5C 113.799,157.306 115.132,156.306 116.5,155.5 Z"/></g>
<g><path style="opacity:1" fill="#8b4e1e" d="M 39.5,151.5 C 40.5862,151.62 41.2528,152.287 41.5,153.5C 40.9743,156.272 40.1409,158.938 39,161.5C 38.196,162.804 37.0293,163.471 35.5,163.5C 33.8228,162.813 32.1561,162.146 30.5,161.5C 30.5,160.833 30.5,160.167 30.5,159.5C 31.8149,158.524 33.1482,157.524 34.5,156.5C 34.8333,156.667 35.1667,156.833 35.5,157C 34.5,158 33.5,159 32.5,160C 33.5,160.667 34.5,160.667 35.5,160C 37.6966,157.579 39.03,154.745 39.5,151.5 Z"/></g>
<g><path style="opacity:1" fill="#604f17" d="M 116.5,155.5 C 115.132,156.306 113.799,157.306 112.5,158.5C 110.5,157.167 108.5,157.167 106.5,158.5C 105.482,157.807 104.482,157.141 103.5,156.5C 107.031,155.77 110.697,155.104 114.5,154.5C 115.183,154.863 115.85,155.196 116.5,155.5 Z"/></g>
<g><path style="opacity:1" fill="#615118" d="M 123.5,153.5 C 126.324,153.892 129.324,153.892 132.5,153.5C 132.5,154.167 132.5,154.833 132.5,155.5C 128.378,155.991 124.378,156.991 120.5,158.5C 119.081,157.995 118.415,156.995 118.5,155.5C 120.698,155.88 122.365,155.213 123.5,153.5 Z"/></g>
<g><path style="opacity:1" fill="#be7633" d="M 39.5,151.5 C 39.03,154.745 37.6966,157.579 35.5,160C 34.5,160.667 33.5,160.667 32.5,160C 33.5,159 34.5,158 35.5,157C 35.1667,156.833 34.8333,156.667 34.5,156.5C 33.1482,157.524 31.8149,158.524 30.5,159.5C 30.5,156.833 30.5,154.167 30.5,151.5C 31.7942,150.71 32.9609,149.71 34,148.5C 35.2635,150.607 37.0968,151.607 39.5,151.5 Z"/></g>
<g><path style="opacity:1" fill="#462b15" d="M 30.5,151.5 C 30.5,154.167 30.5,156.833 30.5,159.5C 30.5,160.167 30.5,160.833 30.5,161.5C 30.1667,161.5 29.8333,161.5 29.5,161.5C 28.4309,158.592 28.2642,155.592 29,152.5C 29.3826,151.944 29.8826,151.611 30.5,151.5 Z"/></g>
<g><path style="opacity:1" fill="#a26128" d="M 6.5,144.5 C 10.6919,145.685 13.6919,148.351 15.5,152.5C 14.5197,153.981 13.353,155.315 12,156.5C 10.0293,154.192 8.02927,151.858 6,149.5C 5.36026,147.735 5.52692,146.068 6.5,144.5 Z"/></g>
<g><path style="opacity:1" fill="#ae6b2d" d="M 37.5,137.5 C 39.3904,137.297 40.8904,137.963 42,139.5C 42.7835,142.76 42.6168,145.927 41.5,149C 39.5594,149.743 37.7261,149.576 36,148.5C 35.013,144.525 35.513,140.859 37.5,137.5 Z"/></g>
<g><path style="opacity:1" fill="#ad672a" d="M 24.5,140.5 C 27.9496,139.756 29.6162,141.09 29.5,144.5C 27.4884,145.014 25.4884,145.18 23.5,145C 22.4186,143.289 22.752,141.789 24.5,140.5 Z"/></g>
<g><path style="opacity:1" fill="#a56228" d="M 10.5,135.5 C 12.1439,135.286 13.6439,135.62 15,136.5C 17.0742,140.224 19.2408,143.891 21.5,147.5C 19.5838,150.575 17.4172,150.909 15,148.5C 13.5787,145.991 11.9121,143.657 10,141.5C 9.32239,139.402 9.48905,137.402 10.5,135.5 Z"/></g>
<g><path style="opacity:1" fill="#b06c2e" d="M 24.5,140.5 C 20.6111,141.005 18.2777,139.005 17.5,134.5C 17.9799,131.508 19.6466,130.341 22.5,131C 26.4742,133.698 27.1409,136.865 24.5,140.5 Z"/></g>
<g><path style="opacity:1" fill="#512f15" d="M 179.5,226.5 C 180.497,226.47 181.164,226.97 181.5,228C 181.99,230.346 182.657,232.513 183.5,234.5C 182.737,236.368 181.737,238.035 180.5,239.5C 179.833,239.167 179.167,238.833 178.5,238.5C 178.817,235.428 178.484,232.428 177.5,229.5C 174.167,230.167 172.833,232.167 173.5,235.5C 178.833,235.833 178.833,236.167 173.5,236.5C 173.5,238.5 173.5,240.5 173.5,242.5C 172.679,239.359 172.179,236.025 172,232.5C 171.667,234.167 171.333,235.833 171,237.5C 170.586,237.957 170.086,238.291 169.5,238.5C 168.506,235.144 169.173,232.144 171.5,229.5C 173.099,229.768 174.432,229.434 175.5,228.5C 177.062,228.267 178.395,227.6 179.5,226.5 Z"/></g>
<g><path style="opacity:1" fill="#8a4c1d" d="M 112.5,235.5 C 114.167,235.5 115.833,235.5 117.5,235.5C 118.169,239.676 116.669,241.009 113,239.5C 112.51,238.207 112.343,236.873 112.5,235.5 Z"/></g>
<g><path style="opacity:1" fill="#965521" d="M 77.5,234.5 C 84.9395,233.753 86.9395,236.587 83.5,243C 75.6875,244.037 73.6875,241.203 77.5,234.5 Z"/></g>
<g><path style="opacity:1" fill="#9f5c25" d="M 123.5,234.5 C 129.704,234.314 131.037,236.814 127.5,242C 121.202,242.495 119.868,239.995 123.5,234.5 Z"/></g>
<g><path style="opacity:1" fill="#a26027" d="M 178.5,238.5 C 178.011,241.324 176.344,242.657 173.5,242.5C 173.5,240.5 173.5,238.5 173.5,236.5C 178.833,236.167 178.833,235.833 173.5,235.5C 172.833,232.167 174.167,230.167 177.5,229.5C 178.484,232.428 178.817,235.428 178.5,238.5 Z"/></g>
<g><path style="opacity:1" fill="#ac6629" d="M 80.5,258.5 C 78.7078,257.691 76.7078,257.191 74.5,257C 75.4884,253.255 76.155,249.422 76.5,245.5C 79.0593,245.802 81.3926,245.468 83.5,244.5C 85.3388,243.248 87.1722,243.248 89,244.5C 90.1794,250.801 90.5127,257.135 90,263.5C 87.1698,261.169 84.0031,259.502 80.5,258.5 Z"/></g>
<g><path style="opacity:1" fill="#b46b2c" d="M 121.5,259.5 C 120.836,257.19 120.503,254.69 120.5,252C 120.525,249.071 121.191,246.571 122.5,244.5C 125.146,244.108 127.646,244.108 130,244.5C 131.29,248.73 131.79,253.064 131.5,257.5C 127.915,257.152 124.582,257.819 121.5,259.5 Z"/></g>
<g><path style="opacity:1" fill="#7a431a" d="M 83.5,244.5 C 81.3926,245.468 79.0593,245.802 76.5,245.5C 76.155,249.422 75.4884,253.255 74.5,257C 76.7078,257.191 78.7078,257.691 80.5,258.5C 75.5918,257.874 71.0918,258.874 67,261.5C 66.7446,254.836 68.2446,248.669 71.5,243C 75.2673,244.138 79.2673,244.638 83.5,244.5 Z"/></g>
<g><path style="opacity:1" fill="#82471b" d="M 122.5,244.5 C 121.191,246.571 120.525,249.071 120.5,252C 120.503,254.69 120.836,257.19 121.5,259.5C 119.382,261.933 116.716,263.6 113.5,264.5C 110.374,263.708 108.708,261.708 108.5,258.5C 109.101,253.789 109.935,249.122 111,244.5C 111.689,243.643 112.522,242.977 113.5,242.5C 116.64,243.089 119.64,243.756 122.5,244.5 Z"/></g>
<g><path style="opacity:1" fill="#b86f2e" d="M 142.5,268.5 C 142.5,269.833 142.5,271.167 142.5,272.5C 138.917,271.772 135.584,270.439 132.5,268.5C 129.291,269.743 126.624,268.91 124.5,266C 127.182,263.67 126.849,263.17 123.5,264.5C 122.614,263.675 122.281,262.675 122.5,261.5C 131.328,257.578 137.995,259.911 142.5,268.5 Z"/></g>
<g><path style="opacity:1" fill="#7e4419" d="M 107.5,264.5 C 109.297,265.73 111.297,266.396 113.5,266.5C 113.5,268.5 113.5,270.5 113.5,272.5C 107.199,273.087 105.199,270.421 107.5,264.5 Z"/></g>
<g><path style="opacity:1" fill="#975521" d="M 122.5,261.5 C 122.281,262.675 122.614,263.675 123.5,264.5C 126.849,263.17 127.182,263.67 124.5,266C 126.624,268.91 129.291,269.743 132.5,268.5C 135.584,270.439 138.917,271.772 142.5,272.5C 142.5,271.167 142.5,269.833 142.5,268.5C 143.29,269.609 143.79,270.942 144,272.5C 144.49,271.207 144.657,269.873 144.5,268.5C 145.167,268.5 145.5,268.833 145.5,269.5C 145.768,271.099 145.434,272.432 144.5,273.5C 142.833,273.5 141.167,273.5 139.5,273.5C 133.5,273.5 127.5,273.5 121.5,273.5C 121.387,270.951 122.054,268.618 123.5,266.5C 122.738,266.089 121.738,265.923 120.5,266C 120.833,265.667 121.167,265.333 121.5,265C 120.584,264.722 119.918,264.222 119.5,263.5C 120.29,262.599 121.29,261.932 122.5,261.5 Z"/></g>
<g><path style="opacity:1" fill="#7c441a" d="M 119.5,263.5 C 119.918,264.222 120.584,264.722 121.5,265C 121.167,265.333 120.833,265.667 120.5,266C 121.738,265.923 122.738,266.089 123.5,266.5C 122.054,268.618 121.387,270.951 121.5,273.5C 127.5,273.5 133.5,273.5 139.5,273.5C 131.308,274.755 122.975,274.755 114.5,273.5C 114.056,269.054 115.723,265.721 119.5,263.5 Z"/></g>
<g><path style="opacity:1" fill="#874a1c" d="M 72.5,261.5 C 70.6284,263.045 69.6284,265.045 69.5,267.5C 70.6636,270.067 71.3303,272.734 71.5,275.5C 63.382,276.13 61.2154,273.13 65,266.5C 66.8567,263.8 69.3567,262.134 72.5,261.5 Z"/></g>
<g><path style="opacity:1" fill="#ad662a" d="M 71.5,275.5 C 71.3303,272.734 70.6636,270.067 69.5,267.5C 69.6284,265.045 70.6284,263.045 72.5,261.5C 82.0387,259.03 88.7053,262.363 92.5,271.5C 92.3918,272.442 92.0585,273.275 91.5,274C 84.9439,276.569 78.2772,277.069 71.5,275.5 Z"/></g>
<g><path style="opacity:1" fill="#c28c4c" d="M 104.5,267.5 C 104.5,269.5 104.5,271.5 104.5,273.5C 110.261,274.7 115.927,275.7 121.5,276.5C 111.897,276.806 102.23,276.806 92.5,276.5C 93.388,273.946 93.7214,271.279 93.5,268.5C 97.2693,268.756 100.936,268.423 104.5,267.5 Z"/></g>
<g><path style="opacity:1" fill="#d7a464" d="M 61.5,268.5 C 61.2317,271.119 61.565,273.619 62.5,276C 72.4761,278.999 82.4761,279.166 92.5,276.5C 102.23,276.806 111.897,276.806 121.5,276.5C 127.509,276.666 133.509,276.499 139.5,276C 141.491,275.626 143.158,274.793 144.5,273.5C 145.434,272.432 145.768,271.099 145.5,269.5C 150.874,269.523 156.207,270.023 161.5,271C 164.177,271.249 166.51,272.249 168.5,274C 163.406,276.276 158.073,277.943 152.5,279C 124.206,281.302 95.8731,281.969 67.5,281C 57.065,280.39 46.7317,279.057 36.5,277C 34.9194,276.293 33.4194,275.46 32,274.5C 31.5439,273.256 32.0439,272.423 33.5,272C 42.6614,269.521 51.9947,268.355 61.5,268.5 Z"/></g>
</svg>
